<svg width="26" height="9" viewBox="0 0 26 9" fill="none" xmlns="http://www.w3.org/2000/svg">
<g opacity="0.3">
<mask id="path-1-inside-1_206_912" fill="white">
<ellipse cx="12.5751" cy="4.94499" rx="12.6078" ry="3.68535" transform="rotate(7.82408 12.5751 4.94499)"/>
</mask>
<path d="M21.1027 6.11678C21.304 4.65208 22.3714 4.23251 22.0837 4.378C21.9285 4.45645 21.4305 4.63987 20.4632 4.78391C18.5832 5.06388 15.8 5.07052 12.618 4.63327L11.5289 12.5588C15.2451 13.0694 18.8194 13.1169 21.6416 12.6967C23.0254 12.4906 24.4647 12.1386 25.6937 11.5172C26.7901 10.9628 28.6885 9.67875 29.0283 7.20584L21.1027 6.11678ZM12.618 4.63327C9.43588 4.19601 6.75768 3.43893 5.02281 2.66223C4.13024 2.26262 3.70017 1.95167 3.57194 1.83428C3.33413 1.61658 4.24876 2.3085 4.0475 3.7732L-3.87803 2.68415C-4.21784 5.15706 -2.73617 6.90551 -1.82992 7.73512C-0.814104 8.66504 0.476895 9.39217 1.75385 9.96387C4.35804 11.1298 7.81272 12.0481 11.5289 12.5588L12.618 4.63327ZM4.0475 3.7732C3.84623 5.23791 2.77886 5.65748 3.06658 5.51199C3.22172 5.43354 3.71973 5.25011 4.687 5.10607C6.56706 4.8261 9.35021 4.81947 12.5323 5.25672L13.6213 -2.66881C9.90516 -3.17945 6.33081 -3.22693 3.50867 -2.80667C2.12483 -2.6006 0.685557 -2.24864 -0.543435 -1.62719C-1.63986 -1.07276 -3.53822 0.211234 -3.87803 2.68415L4.0475 3.7732ZM12.5323 5.25672C15.7144 5.69397 18.3926 6.45106 20.1274 7.22776C21.02 7.62736 21.4501 7.93832 21.5783 8.05571C21.8161 8.27341 20.9015 7.58149 21.1027 6.11678L29.0283 7.20584C29.3681 4.73293 27.8864 2.98448 26.9802 2.15487C25.9643 1.22495 24.6734 0.497818 23.3964 -0.0738789C20.7922 -1.23978 17.3375 -2.15816 13.6213 -2.66881L12.5323 5.25672Z" fill="url(#paint0_radial_206_912)" mask="url(#path-1-inside-1_206_912)"/>
</g>
<defs>
<radialGradient id="paint0_radial_206_912" cx="0" cy="0" r="1" gradientUnits="userSpaceOnUse" gradientTransform="translate(12.5751 4.94499) rotate(97.8241) scale(3.68535 12.6078)">
<stop stop-color="#3F51E8"/>
<stop offset="0.572917" stop-color="#9BA4ED"/>
<stop offset="1" stop-color="#1F34E7"/>
</radialGradient>
</defs>
</svg>
