<svg width="42" height="14" viewBox="0 0 42 14" fill="none" xmlns="http://www.w3.org/2000/svg">
<path opacity="0.7" d="M38.729 8.76179C38.73 8.76203 38.7233 8.77031 38.7058 8.78595C38.7192 8.76937 38.728 8.76156 38.729 8.76179ZM34.8392 7.36922C36.3266 8.03089 37.3653 8.66245 38.0012 9.18688C37.2474 9.52033 36.0769 9.84832 34.4661 10.0843C30.9477 10.5996 26.01 10.5804 20.5306 9.82747C15.0513 9.07454 10.2914 7.76122 7.04242 6.31595C5.55497 5.65427 4.51633 5.02272 3.88035 4.49829C4.63422 4.16484 5.8047 3.83684 7.41549 3.6009C10.9339 3.08554 15.8716 3.10477 21.351 3.8577C26.8303 4.61063 31.5902 5.92395 34.8392 7.36922ZM3.29423 3.89266C3.29527 3.89271 3.30157 3.9026 3.31002 3.92219C3.29741 3.90241 3.29319 3.89261 3.29423 3.89266ZM3.1526 4.92337C3.15158 4.92314 3.15829 4.91484 3.17577 4.8992C3.16235 4.91579 3.15361 4.92361 3.1526 4.92337ZM38.5716 9.76298C38.5842 9.78276 38.5884 9.79255 38.5874 9.79251C38.5863 9.79246 38.58 9.78256 38.5716 9.76298Z" stroke="url(#paint0_radial_206_915)" stroke-width="6"/>
<defs>
<radialGradient id="paint0_radial_206_915" cx="0" cy="0" r="1" gradientUnits="userSpaceOnUse" gradientTransform="translate(20.9408 6.84258) rotate(97.8241) scale(6.01293 20.7543)">
<stop stop-color="#3F51E8"/>
<stop offset="0.572917" stop-color="#9BA4ED"/>
<stop offset="1" stop-color="#1F34E7"/>
</radialGradient>
</defs>
</svg>
