<svg width="36" height="26" viewBox="0 0 36 26" fill="none" xmlns="http://www.w3.org/2000/svg">
<path d="M32.2464 2.45069C32.2474 2.4502 32.2478 2.46084 32.245 2.48413C32.2441 2.46283 32.2455 2.45119 32.2464 2.45069ZM28.4062 3.97455C29.96 3.48881 31.157 3.27691 31.9808 3.25056C31.6351 3.99887 30.973 5.01828 29.9195 6.25942C27.6183 8.97038 23.8985 12.2175 19.2873 15.2716C14.6761 18.3257 10.2349 20.4837 6.84094 21.5447C5.28712 22.0305 4.09016 22.2424 3.26626 22.2687C3.612 21.5204 4.27413 20.501 5.32764 19.2598C7.62878 16.5489 11.3486 13.3018 15.9599 10.2477C20.5711 7.19361 25.0122 5.03554 28.4062 3.97455ZM2.42616 22.2012C2.42697 22.2005 2.43824 22.2038 2.45753 22.2129C2.43499 22.2064 2.42535 22.2018 2.42616 22.2012ZM3.00066 23.0686C2.99974 23.0691 2.9993 23.0584 3.00209 23.0351C3.00297 23.0564 3.00157 23.0681 3.00066 23.0686ZM32.7896 3.30636C32.8121 3.31288 32.8218 3.31744 32.8209 3.3181C32.8201 3.31875 32.8089 3.31548 32.7896 3.30636Z" stroke="url(#paint0_radial_206_913)" stroke-width="6"/>
<defs>
<radialGradient id="paint0_radial_206_913" cx="0" cy="0" r="1" gradientUnits="userSpaceOnUse" gradientTransform="translate(17.6236 12.7596) rotate(56.4828) scale(6.01293 20.7543)">
<stop stop-color="#3F51E8"/>
<stop offset="0.572917" stop-color="#9BA4ED"/>
<stop offset="1" stop-color="#1F34E7"/>
</radialGradient>
</defs>
</svg>
